<svg width="63" height="24" viewBox="0 0 63 24" xmlns="http://www.w3.org/2000/svg"><title>badge organisasi ktbs 2</title><g fill="none" fill-rule="evenodd"><g transform="translate(26 4)"><path d="M14.16 8.065c0 1.191-.295 2.106-.887 2.746-.593.64-1.441.96-2.547.96-1.105 0-1.954-.32-2.546-.96-.592-.64-.888-1.558-.888-2.756 0-1.198.297-2.112.89-2.744.594-.632 1.445-.947 2.554-.947 1.109 0 1.957.318 2.544.954.587.637.88 1.553.88 2.747zm-5.265 0c0 .804.153 1.41.46 1.816.305.407.763.61 1.371.61 1.22 0 1.831-.808 1.831-2.426 0-1.621-.607-2.432-1.82-2.432-.61 0-1.068.205-1.378.613-.309.409-.464 1.015-.464 1.819zm8.29-.394h.494c.484 0 .84-.08 1.071-.241.23-.16.345-.413.345-.758 0-.341-.117-.584-.352-.728-.236-.145-.6-.217-1.093-.217h-.464v1.944zm0 1.24v2.762h-1.529V4.477h2.102c.98 0 1.706.178 2.176.534.47.356.706.896.706 1.622 0 .423-.117.8-.35 1.13-.234.329-.565.587-.992.774a290.566 290.566 0 0 0 2.122 3.136h-1.698L18 8.91h-.814zm7.881-1.28h2.863v3.732c-.464.15-.901.256-1.31.317-.41.06-.829.091-1.256.091-1.09 0-1.92-.319-2.495-.957-.574-.638-.861-1.555-.861-2.75 0-1.16.333-2.066 1-2.716.665-.65 1.589-.975 2.77-.975.74 0 1.454.148 2.142.443l-.509 1.221a3.638 3.638 0 0 0-1.643-.394c-.661 0-1.19.222-1.589.665-.398.443-.597 1.038-.597 1.786 0 .781.16 1.378.481 1.79.321.411.787.617 1.4.617.318 0 .642-.033.971-.098V8.902h-1.367v-1.27z" fill="#3198E8"/><rect stroke="#3198E8" stroke-width="1.45" x=".725" y=".725" width="33.55" height="14.55" rx="7.275"/></g><path d="M12 22c5.523 0 10-4.477 10-10S17.523 2 12 2 2 6.477 2 12s4.477 10 10 10zm-1.402-5.911l-4.154-3.444 1.45-1.201 2.704 2.162L17.36 8l1.449 1.201-8.21 6.888z" fill="#3198E8"/></g></svg>